<svg xmlns="http://www.w3.org/2000/svg" viewBox="0 0 256 256">
  <defs>
    <linearGradient id="grad" x1="0%" y1="0%" x2="100%" y2="100%">
      <stop offset="0%" style="stop-color:#2563eb;stop-opacity:1" />
      <stop offset="100%" style="stop-color:#dc2626;stop-opacity:1" />
    </linearGradient>
  </defs>
  <rect width="256" height="256" fill="#ffffff" opacity="0"/>
  <path d="M40 80 L40 176 L56 176 L56 128 L80 176 L96 176 L96 128 L120 176 L136 176 L136 80 L120 80 L120 140 L96 92 L80 92 L80 140 L56 92 L40 92 Z" fill="url(#grad)"/>
  <path d="M152 80 L152 176 L168 176 L168 128 L192 176 L208 176 L208 80 L192 80 L192 140 L168 92 L152 92 Z" fill="url(#grad)"/>
  <path d="M40 80 L56 80 L56 92 L40 92 Z M96 80 L120 80 L120 92 L96 92 Z M152 80 L168 80 L168 92 L152 92 Z" fill="url(#grad)"/>
</svg>